<svg xmlns="http://www.w3.org/2000/svg" viewBox="0 0 32 32" fill="none">
  <circle cx="16" cy="16" r="16" fill="#2775CA"/>
  <path d="M20.6 18.2c0-2.2-1.3-2.9-3.8-3.2-1.8-.3-2.2-.7-2.2-1.5s.7-1.3 1.8-1.3c1 0 1.6.4 1.8 1.2.1.1.2.2.3.2h.7c.2 0 .3-.2.3-.3-.2-1.1-1-2-2.2-2.2v-1.3c0-.2-.1-.3-.3-.3h-.6c-.2 0-.3.1-.3.3V11c-1.5.2-2.5 1.2-2.5 2.5 0 2 1.2 2.8 3.7 3.1 1.7.3 2.3.7 2.3 1.6 0 1-.9 1.6-2 1.6-1.6 0-2.1-.7-2.3-1.3-.1-.2-.2-.2-.3-.2h-.8c-.2 0-.3.2-.3.3.3 1.3 1.1 2.1 2.7 2.4v1.3c0 .2.1.3.3.3h.6c.2 0 .3-.1.3-.3V21c1.6-.2 2.7-1.3 2.7-2.8z" fill="#fff"/>
  <path d="M13 24.3c-4.5-1.6-6.8-6.5-5.3-11 .8-2.2 2.5-3.9 4.7-4.7.2-.1.3-.2.3-.4v-.6c0-.2-.1-.3-.3-.3h-.1c-5.2 1.7-8 7.3-6.3 12.5 1 3.1 3.4 5.5 6.3 6.5.2.1.4 0 .4-.2v-.6c.1-.2 0-.4-.2-.5l-.5.3zm6-.1c-.2-.1-.4 0-.4.2v.6c0 .2.1.3.3.4 5.2-1.7 8-7.3 6.3-12.5-1-3.1-3.4-5.5-6.3-6.5-.2-.1-.4 0-.4.2v.6c0 .2.1.3.3.4 4.5 1.6 6.8 6.5 5.3 11-.8 2.2-2.6 4-4.7 4.7l-.4-.1z" fill="#fff"/>
</svg>
